<svg xmlns="http://www.w3.org/2000/svg" viewBox="0 0 600 400" width="100%" height="100%" preserveAspectRatio="xMidYMid meet">
  <!-- Discord-style interface frame -->
  <rect x="0" y="50" width="500" height="300" rx="10" fill="#36393F" />
  
  <!-- Server sidebar -->
  <rect x="0" y="50" width="70" height="300" fill="#202225" rx="10 0 0 10" />
  
  <!-- Discord server icons -->
  <circle cx="35" cy="85" r="20" fill="#7289DA" />
  <text x="35" y="89" font-family="Arial" font-size="12" fill="white" text-anchor="middle">DS</text>
  
  <circle cx="35" cy="135" r="20" fill="#43B581" />
  <text x="35" y="139" font-family="Arial" font-size="12" fill="white" text-anchor="middle">GB</text>
  
  <circle cx="35" cy="185" r="20" fill="#FAA61A" />
  <text x="35" y="189" font-family="Arial" font-size="12" fill="white" text-anchor="middle">MT</text>
  
  <!-- Channel list sidebar -->
  <rect x="70" y="50" width="130" height="300" fill="#2F3136" />
  
  <!-- Channel headers -->
  <text x="85" y="75" font-family="Arial" font-size="12" fill="#8E9297">TEXT CHANNELS</text>
  <text x="85" y="105" font-family="Arial" font-size="14" fill="#FFFFFF"># general</text>
  <text x="85" y="135" font-family="Arial" font-size="14" fill="#FFFFFF"># bot-commands</text>
  <text x="85" y="165" font-family="Arial" font-size="14" fill="#8E9297"># announcements</text>
  
  <!-- Main chat area -->
  <rect x="300" y="50" width="300" height="270" fill="#36393F" />
  

  
    <!-- User message -->
  <circle cx="225" cy="100" r="15" fill="#43B581" />
  <text x="225" y="104" font-family="Arial" font-size="10" fill="white" text-anchor="middle">U</text>
  <text x="250" y="95" font-family="Arial" font-size="14" font-weight="bold" fill="#FFFFFF">User</text>
  <text x="290" y="95" font-family="Arial" font-size="10" fill="#8E9297">Today at 12:34 PM</text>
  <text x="250" y="115" font-family="Arial" font-size="12" fill="#DCDDDE">/info-server</text>

    <!-- Bot message -->
  <circle cx="225" cy="150" r="15" fill="#7289DA" />
  <text x="225" y="154" font-family="Arial" font-size="10" fill="white" text-anchor="middle">BOT</text>
  <text x="250" y="145" font-family="Arial" font-size="14" font-weight="bold" fill="#FFFFFF">SuperBot</text>
  <text x="320" y="145" font-family="Arial" font-size="10" fill="#8E9297">Today at 12:34 PM</text>

  <!-- Bot response with embed -->
  <rect x="250" y="155" width="300" height="120" rx="5" fill="#2F3136" />
  <rect x="250" y="155" width="5" height="120" rx="5 0 0 5" fill="#7289DA" />
  <text x="260" y="175" font-family="Arial" font-size="14" font-weight="bold" fill="#FFFFFF">Command Successfully Executed</text>
  <text x="260" y="200" font-family="Arial" font-size="12" fill="#DCDDDE">User analytics gathered for server:</text>
  <text x="260" y="220" font-family="Arial" font-size="12" fill="#DCDDDE">• 342 active users this week</text>
  <text x="260" y="240" font-family="Arial" font-size="12" fill="#DCDDDE">• 5,421 messages sent</text>
  <text x="260" y="260" font-family="Arial" font-size="12" fill="#DCDDDE">• Most active channel: #general</text>
  

  
  <!-- Chat input area -->
  <rect x="200" y="310" width="500" height="40" rx="5" fill="#40444B" />
  <text x="270" y="335" font-family="Arial" font-size="14" fill="#72767D">Message #bot-commands</text>
</svg>