<svg xmlns="http://www.w3.org/2000/svg" viewBox="0 0 600 400">
  <!-- Background with Discord-inspired gradient -->
  <defs>
    <linearGradient id="discordGradient" x1="0%" y1="0%" x2="100%" y2="100%">
      <stop offset="0%" stop-color="#5865F2" />
      <stop offset="100%" stop-color="#7289DA" />
    </linearGradient>
  </defs>
  <rect width="600" height="400" fill="url(#discordGradient)" />
  
  <!-- Discord-style interface frame -->
  <rect x="50" y="50" width="500" height="300" rx="10" fill="#36393F" />
  
  <!-- Server sidebar -->
  <rect x="50" y="50" width="70" height="300" fill="#202225" rx="10 0 0 10" />
  
  <!-- Discord server icons -->
  <circle cx="85" cy="85" r="20" fill="#7289DA" />
  <text x="85" y="89" font-family="Arial" font-size="12" fill="white" text-anchor="middle">DS</text>
  
  <circle cx="85" cy="135" r="20" fill="#43B581" />
  <text x="85" y="139" font-family="Arial" font-size="12" fill="white" text-anchor="middle">GB</text>
  
  <circle cx="85" cy="185" r="20" fill="#FAA61A" />
  <text x="85" y="189" font-family="Arial" font-size="12" fill="white" text-anchor="middle">MT</text>
  
  <!-- Channel list sidebar -->
  <rect x="120" y="50" width="130" height="300" fill="#2F3136" />
  
  <!-- Channel headers -->
  <text x="135" y="75" font-family="Arial" font-size="12" fill="#8E9297">TEXT CHANNELS</text>
  <text x="135" y="105" font-family="Arial" font-size="14" fill="#FFFFFF"># general</text>
  <text x="135" y="135" font-family="Arial" font-size="14" fill="#FFFFFF"># bot-commands</text>
  <text x="135" y="165" font-family="Arial" font-size="14" fill="#8E9297"># announcements</text>
  
  <!-- Main chat area -->
  <rect x="250" y="50" width="300" height="260" fill="#36393F" />
  
  <!-- Bot message -->
  <circle cx="275" cy="100" r="15" fill="#7289DA" />
  <text x="275" y="104" font-family="Arial" font-size="10" fill="white" text-anchor="middle">BOT</text>
  <text x="300" y="95" font-family="Arial" font-size="14" font-weight="bold" fill="#FFFFFF">SuperBot</text>
  <text x="370" y="95" font-family="Arial" font-size="10" fill="#8E9297">Today at 12:34 PM</text>
  
  <!-- Bot response with embed -->
  <rect x="300" y="105" width="220" height="120" rx="5" fill="#2F3136" />
  <rect x="300" y="105" width="5" height="120" rx="5 0 0 5" fill="#7289DA" />
  <text x="310" y="125" font-family="Arial" font-size="14" font-weight="bold" fill="#FFFFFF">Command Successfully Executed</text>
  <text x="310" y="150" font-family="Arial" font-size="12" fill="#DCDDDE">User analytics gathered for server:</text>
  <text x="310" y="170" font-family="Arial" font-size="12" fill="#DCDDDE">• 342 active users this week</text>
  <text x="310" y="190" font-family="Arial" font-size="12" fill="#DCDDDE">• 5,421 messages sent</text>
  <text x="310" y="210" font-family="Arial" font-size="12" fill="#DCDDDE">• Most active channel: #general</text>
  
  <!-- User message -->
  <circle cx="275" cy="270" r="15" fill="#43B581" />
  <text x="275" y="274" font-family="Arial" font-size="10" fill="white" text-anchor="middle">U</text>
  <text x="300" y="265" font-family="Arial" font-size="14" font-weight="bold" fill="#FFFFFF">User</text>
  <text x="340" y="265" font-family="Arial" font-size="10" fill="#8E9297">Today at 12:35 PM</text>
  <text x="300" y="285" font-family="Arial" font-size="12" fill="#DCDDDE">/help</text>
  
  <!-- Chat input area -->
  <rect x="250" y="310" width="300" height="40" rx="5" fill="#40444B" />
  <text x="270" y="335" font-family="Arial" font-size="14" fill="#72767D">Message #bot-commands</text>
  
  
  
  <!-- Discord logo at the bottom -->
  <path d="M280 370 Q300 350 320 370 Q340 390 360 370 Q380 350 400 370" stroke="#7289DA" stroke-width="4" fill="none" />
</svg>